<mxfile host="app.diagrams.net" modified="2022-04-27T04:39:40.478Z" agent="5.0 (Windows NT 10.0; Win64; x64) AppleWebKit/537.36 (KHTML, like Gecko) Chrome/100.0.4896.127 Safari/537.36" etag="_gWpHKmKQx4xMr1WgRYu" version="17.4.6" type="github">
  <diagram id="w6qY9axtaVfuG32Xlg_k" name="Page-1">
    <mxGraphModel dx="1284" dy="1426" grid="1" gridSize="10" guides="1" tooltips="1" connect="1" arrows="1" fold="1" page="1" pageScale="1" pageWidth="827" pageHeight="1169" math="0" shadow="0">
      <root>
        <mxCell id="0" />
        <mxCell id="1" parent="0" />
        <mxCell id="SwLcTmd6bjzHyU9u7sXC-1" value="" style="endArrow=none;dashed=1;html=1;dashPattern=1 3;strokeWidth=2;rounded=0;fontSize=9;" parent="1" edge="1">
          <mxGeometry width="50" height="50" relative="1" as="geometry">
            <mxPoint x="-22" y="640" as="sourcePoint" />
            <mxPoint x="-22" y="-110" as="targetPoint" />
          </mxGeometry>
        </mxCell>
        <mxCell id="SwLcTmd6bjzHyU9u7sXC-2" value="" style="endArrow=none;dashed=1;html=1;dashPattern=1 3;strokeWidth=2;rounded=0;fontSize=9;" parent="1" edge="1">
          <mxGeometry width="50" height="50" relative="1" as="geometry">
            <mxPoint x="-20" y="-110" as="sourcePoint" />
            <mxPoint x="798.0064516129032" y="-110" as="targetPoint" />
          </mxGeometry>
        </mxCell>
        <mxCell id="SwLcTmd6bjzHyU9u7sXC-3" value="" style="endArrow=none;dashed=1;html=1;dashPattern=1 3;strokeWidth=2;rounded=0;fontSize=9;" parent="1" edge="1">
          <mxGeometry width="50" height="50" relative="1" as="geometry">
            <mxPoint x="800" y="630" as="sourcePoint" />
            <mxPoint x="798" y="-110" as="targetPoint" />
          </mxGeometry>
        </mxCell>
        <mxCell id="SwLcTmd6bjzHyU9u7sXC-4" value="" style="endArrow=none;dashed=1;html=1;dashPattern=1 3;strokeWidth=2;rounded=0;fontSize=9;" parent="1" edge="1">
          <mxGeometry width="50" height="50" relative="1" as="geometry">
            <mxPoint x="-20" y="640" as="sourcePoint" />
            <mxPoint x="798.3738709677419" y="640" as="targetPoint" />
          </mxGeometry>
        </mxCell>
        <mxCell id="SwLcTmd6bjzHyU9u7sXC-5" value="&lt;span style=&quot;font-size: 20px&quot;&gt;&lt;b&gt;User management&lt;/b&gt;&lt;/span&gt;" style="text;html=1;strokeColor=none;fillColor=none;align=center;verticalAlign=middle;whiteSpace=wrap;rounded=0;fontSize=9;" parent="1" vertex="1">
          <mxGeometry x="259.8958064516129" y="-100" width="199.74193548387095" height="30" as="geometry" />
        </mxCell>
        <mxCell id="O7KzEF7yCn1SDMwKWR9x-1" value="Users" style="rounded=0;whiteSpace=wrap;html=1;" parent="1" vertex="1">
          <mxGeometry x="389.8087096774193" y="390" width="59.92258064516129" height="30" as="geometry" />
        </mxCell>
        <mxCell id="O7KzEF7yCn1SDMwKWR9x-2" value="&lt;p class=&quot;MsoNormal&quot;&gt;&lt;span style=&quot;color: rgba(0 , 0 , 0 , 0) ; font-family: monospace ; font-size: 0px&quot;&gt;sss%3CmxGraphModel%3E%3Croot%3E%3CmxCell%20id%3D%220%22%2F%3E%3CmxCell%20id%3D%221%22%20parent%3D%220%22%2F%3E%3CmxCell%20id%3D%222%22%20value%3D%22%26lt%3Bp%20class%3D%26quot%3BMsoNormal%26quot%3B%26gt%3B%26lt%3Bspan%20style%3D%26quot%3Bfont-family%3A%20%26amp%3B%2334%3Btimes%20new%20roman%26amp%3B%2334%3B%20%3B%20font-size%3A%2010.5000pt%26quot%3B%26gt%3Bquestions%26amp%3Bnbsp%3B%26lt%3B%2Fspan%26gt%3B%26lt%3Bspan%20style%3D%26quot%3Bfont-family%3A%20%26amp%3B%2334%3Btimes%20new%20roman%26amp%3B%2334%3B%20%3B%20font-size%3A%2010.5pt%26quot%3B%26gt%3Bmodule%26lt%3B%2Fspan%26gt%3B%26lt%3B%2Fp%26gt%3B%22%20style%3D%22rounded%3D1%3BwhiteSpace%3Dwrap%3Bhtml%3D1%3BfontSize%3D12%3Bglass%3D0%3BstrokeWidth%3D1%3Bshadow%3D0%3B%22%20vertex%3D%221%22%20parent%3D%221%22%3E%3CmxGeometry%20x%3D%22420%22%20y%3D%22100%22%20width%3D%22120%22%20height%3D%2240%22%20as%3D%22geometry%22%2F%3E%3C%2FmxCell%3E%3C%2Froot%3E%3C%2FmxGraphModel%&lt;/span&gt;&lt;span style=&quot;font-family: &amp;#34;times new roman&amp;#34; ; font-size: 10.5pt&quot;&gt;Get User Input&lt;/span&gt;&lt;/p&gt;" style="rounded=1;whiteSpace=wrap;html=1;fontSize=12;glass=0;strokeWidth=1;shadow=0;" parent="1" vertex="1">
          <mxGeometry x="358.9474193548387" y="210" width="119.84516129032258" height="40" as="geometry" />
        </mxCell>
        <mxCell id="O7KzEF7yCn1SDMwKWR9x-3" value="&lt;p class=&quot;MsoNormal&quot;&gt;&lt;span style=&quot;color: rgba(0 , 0 , 0 , 0) ; font-family: monospace ; font-size: 0px&quot;&gt;sss%3CmxGraphModel%3E%3Croot%3E%3CmxCell%20id%3D%220%22%2F%3E%3CmxCell%20id%3D%221%22%20parent%3D%220%22%2F%3E%3CmxCell%20id%3D%222%22%20value%3D%22%26lt%3Bp%20class%3D%26quot%3BMsoNormal%26quot%3B%26gt%3B%26lt%3Bspan%20style%3D%26quot%3Bfont-family%3A%20%26amp%3B%2334%3Btimes%20new%20roman%26amp%3B%2334%3B%20%3B%20font-size%3A%2010.5000pt%26quot%3B%26gt%3Bquestions%26amp%3Bnbsp%3B%26lt%3B%2Fspan%26gt%3B%26lt%3Bspan%20style%3D%26quot%3Bfont-family%3A%20%26amp%3B%2334%3Btimes%20new%20roman%26amp%3B%2334%3B%20%3B%20font-size%3A%2010.5pt%26quot%3B%26gt%3Bmodule%26lt%3B%2Fspan%26gt%3B%26lt%3B%2Fp%26gt%3B%22%20style%3D%22rounded%3D1%3BwhiteSpace%3Dwrap%3Bhtml%3D1%3BfontSize%3D12%3Bglass%3D0%3BstrokeWidth%3D1%3Bshadow%3D0%3B%22%20vertex%3D%221%22%20parent%3D%221%22%3E%3CmxGeometry%20x%3D%22420%22%20y%3D%22100%22%20width%3D%22120%22%20height%3D%2240%22%20as%3D%22geometry%22%2F%3E%3C%2FmxCell%3E%3C%2Froot%3E%3C%2FmxGraphModel%&lt;/span&gt;&lt;span style=&quot;font-family: &amp;#34;times new roman&amp;#34; ; font-size: 10.5pt&quot;&gt;Login&lt;/span&gt;&lt;/p&gt;" style="rounded=1;whiteSpace=wrap;html=1;fontSize=12;glass=0;strokeWidth=1;shadow=0;" parent="1" vertex="1">
          <mxGeometry x="449.72741935483873" y="297" width="119.84516129032258" height="40" as="geometry" />
        </mxCell>
        <mxCell id="O7KzEF7yCn1SDMwKWR9x-5" value="&lt;p class=&quot;MsoNormal&quot;&gt;&lt;span style=&quot;color: rgba(0 , 0 , 0 , 0) ; font-family: monospace ; font-size: 0px&quot;&gt;sss%3CmxGraphModel%3E%3Croot%3E%3CmxCell%20id%3D%220%22%2F%3E%3CmxCell%20id%3D%221%22%20parent%3D%220%22%2F%3E%3CmxCell%20id%3D%222%22%20value%3D%22%26lt%3Bp%20class%3D%26quot%3BMsoNormal%26quot%3B%26gt%3B%26lt%3Bspan%20style%3D%26quot%3Bfont-family%3A%20%26amp%3B%2334%3Btimes%20new%20roman%26amp%3B%2334%3B%20%3B%20font-size%3A%2010.5000pt%26quot%3B%26gt%3Bquestions%26amp%3Bnbsp%3B%26lt%3B%2Fspan%26gt%3B%26lt%3Bspan%20style%3D%26quot%3Bfont-family%3A%20%26amp%3B%2334%3Btimes%20new%20roman%26amp%3B%2334%3B%20%3B%20font-size%3A%2010.5pt%26quot%3B%26gt%3Bmodule%26lt%3B%2Fspan%26gt%3B%26lt%3B%2Fp%26gt%3B%22%20style%3D%22rounded%3D1%3BwhiteSpace%3Dwrap%3Bhtml%3D1%3BfontSize%3D12%3Bglass%3D0%3BstrokeWidth%3D1%3Bshadow%3D0%3B%22%20vertex%3D%221%22%20parent%3D%221%22%3E%3CmxGeometry%20x%3D%22420%22%20y%3D%22100%22%20width%3D%22120%22%20height%3D%2240%22%20as%3D%22geometry%22%2F%3E%3C%2FmxCell%3E%3C%2Froot%3E%3C%2FmxGraphModel%&lt;/span&gt;&lt;span style=&quot;font-family: &amp;#34;times new roman&amp;#34; ; font-size: 10.5pt&quot;&gt;Update Info&lt;/span&gt;&lt;/p&gt;" style="rounded=1;whiteSpace=wrap;html=1;fontSize=12;glass=0;strokeWidth=1;shadow=0;" parent="1" vertex="1">
          <mxGeometry x="279.9974193548387" y="300" width="119.84516129032258" height="40" as="geometry" />
        </mxCell>
        <mxCell id="O7KzEF7yCn1SDMwKWR9x-6" value="&lt;p class=&quot;MsoNormal&quot;&gt;&lt;span style=&quot;color: rgba(0 , 0 , 0 , 0) ; font-family: monospace ; font-size: 0px&quot;&gt;sss%3CmxGraphModel%3E%3Croot%3E%3CmxCell%20id%3D%220%22%2F%3E%3CmxCell%20id%3D%221%22%20parent%3D%220%22%2F%3E%3CmxCell%20id%3D%222%22%20value%3D%22%26lt%3Bp%20class%3D%26quot%3BMsoNormal%26quot%3B%26gt%3B%26lt%3Bspan%20style%3D%26quot%3Bfont-family%3A%20%26amp%3B%2334%3Btimes%20new%20roman%26amp%3B%2334%3B%20%3B%20font-size%3A%2010.5000pt%26quot%3B%26gt%3Bquestions%26amp%3Bnbsp%3B%26lt%3B%2Fspan%26gt%3B%26lt%3Bspan%20style%3D%26quot%3Bfont-family%3A%20%26amp%3B%2334%3Btimes%20new%20roman%26amp%3B%2334%3B%20%3B%20font-size%3A%2010.5pt%26quot%3B%26gt%3Bmodule%26lt%3B%2Fspan%26gt%3B%26lt%3B%2Fp%26gt%3B%22%20style%3D%22rounded%3D1%3BwhiteSpace%3Dwrap%3Bhtml%3D1%3BfontSize%3D12%3Bglass%3D0%3BstrokeWidth%3D1%3Bshadow%3D0%3B%22%20vertex%3D%221%22%20parent%3D%221%22%3E%3CmxGeometry%20x%3D%22420%22%20y%3D%22100%22%20width%3D%22120%22%20height%3D%2240%22%20as%3D%22geometry%22%2F%3E%3C%2FmxCell%3E%3C%2Froot%3E%3C%2FmxGraphModel%&lt;/span&gt;&lt;span style=&quot;font-family: &amp;#34;times new roman&amp;#34; ; font-size: 10.5pt&quot;&gt;Update Password&lt;/span&gt;&lt;/p&gt;" style="rounded=1;whiteSpace=wrap;html=1;fontSize=12;glass=0;strokeWidth=1;shadow=0;" parent="1" vertex="1">
          <mxGeometry x="579.1474193548388" y="211" width="119.84516129032258" height="40" as="geometry" />
        </mxCell>
        <mxCell id="O7KzEF7yCn1SDMwKWR9x-7" value="&lt;p class=&quot;MsoNormal&quot;&gt;&lt;span style=&quot;color: rgba(0 , 0 , 0 , 0) ; font-family: monospace ; font-size: 0px&quot;&gt;sss%3CmxGraphModel%3E%3Croot%3E%3CmxCell%20id%3D%220%22%2F%3E%3CmxCell%20id%3D%221%22%20parent%3D%220%22%2F%3E%3CmxCell%20id%3D%222%22%20value%3D%22%26lt%3Bp%20class%3D%26quot%3BMsoNormal%26quot%3B%26gt%3B%26lt%3Bspan%20style%3D%26quot%3Bfont-family%3A%20%26amp%3B%2334%3Btimes%20new%20roman%26amp%3B%2334%3B%20%3B%20font-size%3A%2010.5000pt%26quot%3B%26gt%3Bquestions%26amp%3Bnbsp%3B%26lt%3B%2Fspan%26gt%3B%26lt%3Bspan%20style%3D%26quot%3Bfont-family%3A%20%26amp%3B%2334%3Btimes%20new%20roman%26amp%3B%2334%3B%20%3B%20font-size%3A%2010.5pt%26quot%3B%26gt%3Bmodule%26lt%3B%2Fspan%26gt%3B%26lt%3B%2Fp%26gt%3B%22%20style%3D%22rounded%3D1%3BwhiteSpace%3Dwrap%3Bhtml%3D1%3BfontSize%3D12%3Bglass%3D0%3BstrokeWidth%3D1%3Bshadow%3D0%3B%22%20vertex%3D%221%22%20parent%3D%221%22%3E%3CmxGeometry%20x%3D%22420%22%20y%3D%22100%22%20width%3D%22120%22%20height%3D%2240%22%20as%3D%22geometry%22%2F%3E%3C%2FmxCell%3E%3C%2Froot%3E%3C%2FmxGraphModel%&lt;/span&gt;&lt;span style=&quot;font-family: &amp;#34;times new roman&amp;#34; ; font-size: 10.5pt&quot;&gt;Forget Password&amp;nbsp;&lt;/span&gt;&lt;/p&gt;" style="rounded=1;whiteSpace=wrap;html=1;fontSize=12;glass=0;strokeWidth=1;shadow=0;" parent="1" vertex="1">
          <mxGeometry x="279.9974193548387" y="460" width="119.84516129032258" height="40" as="geometry" />
        </mxCell>
        <mxCell id="O7KzEF7yCn1SDMwKWR9x-8" value="&lt;p class=&quot;MsoNormal&quot;&gt;&lt;span style=&quot;color: rgba(0 , 0 , 0 , 0) ; font-family: monospace ; font-size: 0px&quot;&gt;sss%3CmxGraphModel%3E%3Croot%3E%3CmxCell%20id%3D%220%22%2F%3E%3CmxCell%20id%3D%221%22%20parent%3D%220%22%2F%3E%3CmxCell%20id%3D%222%22%20value%3D%22%26lt%3Bp%20class%3D%26quot%3BMsoNormal%26quot%3B%26gt%3B%26lt%3Bspan%20style%3D%26quot%3Bfont-family%3A%20%26amp%3B%2334%3Btimes%20new%20roman%26amp%3B%2334%3B%20%3B%20font-size%3A%2010.5000pt%26quot%3B%26gt%3Bquestions%26amp%3Bnbsp%3B%26lt%3B%2Fspan%26gt%3B%26lt%3Bspan%20style%3D%26quot%3Bfont-family%3A%20%26amp%3B%2334%3Btimes%20new%20roman%26amp%3B%2334%3B%20%3B%20font-size%3A%2010.5pt%26quot%3B%26gt%3Bmodule%26lt%3B%2Fspan%26gt%3B%26lt%3B%2Fp%26gt%3B%22%20style%3D%22rounded%3D1%3BwhiteSpace%3Dwrap%3Bhtml%3D1%3BfontSize%3D12%3Bglass%3D0%3BstrokeWidth%3D1%3Bshadow%3D0%3B%22%20vertex%3D%221%22%20parent%3D%221%22%3E%3CmxGeometry%20x%3D%22420%22%20y%3D%22100%22%20width%3D%22120%22%20height%3D%2240%22%20as%3D%22geometry%22%2F%3E%3C%2FmxCell%3E%3C%2Froot%3E%3C%2FmxGraphModel%&lt;/span&gt;&lt;span style=&quot;font-family: &amp;#34;times new roman&amp;#34; ; font-size: 10.5pt&quot;&gt;Sign UP&lt;/span&gt;&lt;/p&gt;" style="rounded=1;whiteSpace=wrap;html=1;fontSize=12;glass=0;strokeWidth=1;shadow=0;" parent="1" vertex="1">
          <mxGeometry x="139.9974193548387" y="210" width="119.84516129032258" height="40" as="geometry" />
        </mxCell>
        <mxCell id="O7KzEF7yCn1SDMwKWR9x-9" value="&lt;span style=&quot;font-size: 12px&quot;&gt;User Model&lt;/span&gt;" style="strokeWidth=2;html=1;shape=mxgraph.flowchart.annotation_1;align=center;pointerEvents=1;fontSize=8;" parent="1" vertex="1">
          <mxGeometry x="364.836129032258" y="-20" width="114.8516129032258" height="41" as="geometry" />
        </mxCell>
        <mxCell id="O7KzEF7yCn1SDMwKWR9x-10" value="&lt;p class=&quot;MsoNormal&quot;&gt;&lt;span style=&quot;color: rgba(0 , 0 , 0 , 0) ; font-family: monospace ; font-size: 0px&quot;&gt;sss%3CmxGraphModel%3E%3Croot%3E%3CmxCell%20id%3D%220%22%2F%3E%3CmxCell%20id%3D%221%22%20parent%3D%220%22%2F%3E%3CmxCell%20id%3D%222%22%20value%3D%22%26lt%3Bp%20class%3D%26quot%3BMsoNormal%26quot%3B%26gt%3B%26lt%3Bspan%20style%3D%26quot%3Bfont-family%3A%20%26amp%3B%2334%3Btimes%20new%20roman%26amp%3B%2334%3B%20%3B%20font-size%3A%2010.5000pt%26quot%3B%26gt%3Bquestions%26amp%3Bnbsp%3B%26lt%3B%2Fspan%26gt%3B%26lt%3Bspan%20style%3D%26quot%3Bfont-family%3A%20%26amp%3B%2334%3Btimes%20new%20roman%26amp%3B%2334%3B%20%3B%20font-size%3A%2010.5pt%26quot%3B%26gt%3Bmodule%26lt%3B%2Fspan%26gt%3B%26lt%3B%2Fp%26gt%3B%22%20style%3D%22rounded%3D1%3BwhiteSpace%3Dwrap%3Bhtml%3D1%3BfontSize%3D12%3Bglass%3D0%3BstrokeWidth%3D1%3Bshadow%3D0%3B%22%20vertex%3D%221%22%20parent%3D%221%22%3E%3CmxGeometry%20x%3D%22420%22%20y%3D%22100%22%20width%3D%22120%22%20height%3D%2240%22%20as%3D%22geometry%22%2F%3E%3C%2FmxCell%3E%3C%2Froot%3E%3C%2FmxGraphModel%&lt;/span&gt;&lt;span style=&quot;font-family: &amp;#34;times new roman&amp;#34; ; font-size: 10.5pt&quot;&gt;Get User Input&lt;/span&gt;&lt;/p&gt;" style="rounded=1;whiteSpace=wrap;html=1;fontSize=12;glass=0;strokeWidth=1;shadow=0;" parent="1" vertex="1">
          <mxGeometry x="359.84741935483873" y="560" width="119.84516129032258" height="40" as="geometry" />
        </mxCell>
        <mxCell id="O7KzEF7yCn1SDMwKWR9x-11" value="&lt;p class=&quot;MsoNormal&quot;&gt;&lt;span style=&quot;color: rgba(0 , 0 , 0 , 0) ; font-family: monospace ; font-size: 0px&quot;&gt;sss%3CmxGraphModel%3E%3Croot%3E%3CmxCell%20id%3D%220%22%2F%3E%3CmxCell%20id%3D%221%22%20parent%3D%220%22%2F%3E%3CmxCell%20id%3D%222%22%20value%3D%22%26lt%3Bp%20class%3D%26quot%3BMsoNormal%26quot%3B%26gt%3B%26lt%3Bspan%20style%3D%26quot%3Bfont-family%3A%20%26amp%3B%2334%3Btimes%20new%20roman%26amp%3B%2334%3B%20%3B%20font-size%3A%2010.5000pt%26quot%3B%26gt%3Bquestions%26amp%3Bnbsp%3B%26lt%3B%2Fspan%26gt%3B%26lt%3Bspan%20style%3D%26quot%3Bfont-family%3A%20%26amp%3B%2334%3Btimes%20new%20roman%26amp%3B%2334%3B%20%3B%20font-size%3A%2010.5pt%26quot%3B%26gt%3Bmodule%26lt%3B%2Fspan%26gt%3B%26lt%3B%2Fp%26gt%3B%22%20style%3D%22rounded%3D1%3BwhiteSpace%3Dwrap%3Bhtml%3D1%3BfontSize%3D12%3Bglass%3D0%3BstrokeWidth%3D1%3Bshadow%3D0%3B%22%20vertex%3D%221%22%20parent%3D%221%22%3E%3CmxGeometry%20x%3D%22420%22%20y%3D%22100%22%20width%3D%22120%22%20height%3D%2240%22%20as%3D%22geometry%22%2F%3E%3C%2FmxCell%3E%3C%2Froot%3E%3C%2FmxGraphModel%&lt;/span&gt;&lt;span style=&quot;font-family: &amp;#34;times new roman&amp;#34; ; font-size: 10.5pt&quot;&gt;Reset Password&amp;nbsp;&lt;/span&gt;&lt;/p&gt;" style="rounded=1;whiteSpace=wrap;html=1;fontSize=12;glass=0;strokeWidth=1;shadow=0;" parent="1" vertex="1">
          <mxGeometry x="449.72741935483873" y="460" width="119.84516129032258" height="40" as="geometry" />
        </mxCell>
        <mxCell id="O7KzEF7yCn1SDMwKWR9x-12" value="&lt;p class=&quot;MsoNormal&quot;&gt;&lt;span style=&quot;color: rgba(0 , 0 , 0 , 0) ; font-family: monospace ; font-size: 0px&quot;&gt;sss%3CmxGraphModel%3E%3Croot%3E%3CmxCell%20id%3D%220%22%2F%3E%3CmxCell%20id%3D%221%22%20parent%3D%220%22%2F%3E%3CmxCell%20id%3D%222%22%20value%3D%22%26lt%3Bp%20class%3D%26quot%3BMsoNormal%26quot%3B%26gt%3B%26lt%3Bspan%20style%3D%26quot%3Bfont-family%3A%20%26amp%3B%2334%3Btimes%20new%20roman%26amp%3B%2334%3B%20%3B%20font-size%3A%2010.5000pt%26quot%3B%26gt%3Bquestions%26amp%3Bnbsp%3B%26lt%3B%2Fspan%26gt%3B%26lt%3Bspan%20style%3D%26quot%3Bfont-family%3A%20%26amp%3B%2334%3Btimes%20new%20roman%26amp%3B%2334%3B%20%3B%20font-size%3A%2010.5pt%26quot%3B%26gt%3Bmodule%26lt%3B%2Fspan%26gt%3B%26lt%3B%2Fp%26gt%3B%22%20style%3D%22rounded%3D1%3BwhiteSpace%3Dwrap%3Bhtml%3D1%3BfontSize%3D12%3Bglass%3D0%3BstrokeWidth%3D1%3Bshadow%3D0%3B%22%20vertex%3D%221%22%20parent%3D%221%22%3E%3CmxGeometry%20x%3D%22420%22%20y%3D%22100%22%20width%3D%22120%22%20height%3D%2240%22%20as%3D%22geometry%22%2F%3E%3C%2FmxCell%3E%3C%2Froot%3E%3C%2FmxGraphModel%&lt;/span&gt;&lt;span style=&quot;font-family: &amp;#34;times new roman&amp;#34; ; font-size: 10.5pt&quot;&gt;Send Reset Token&amp;nbsp;&lt;/span&gt;&lt;/p&gt;" style="rounded=1;whiteSpace=wrap;html=1;fontSize=12;glass=0;strokeWidth=1;shadow=0;" parent="1" vertex="1">
          <mxGeometry x="160.14741935483872" y="560" width="119.84516129032258" height="40" as="geometry" />
        </mxCell>
        <mxCell id="O7KzEF7yCn1SDMwKWR9x-13" value="" style="endArrow=none;dashed=1;html=1;rounded=0;fontSize=20;" parent="1" edge="1">
          <mxGeometry width="50" height="50" relative="1" as="geometry">
            <mxPoint x="140" y="620" as="sourcePoint" />
            <mxPoint x="140" y="520" as="targetPoint" />
          </mxGeometry>
        </mxCell>
        <mxCell id="O7KzEF7yCn1SDMwKWR9x-14" value="" style="endArrow=none;dashed=1;html=1;rounded=0;fontSize=20;" parent="1" edge="1">
          <mxGeometry width="50" height="50" relative="1" as="geometry">
            <mxPoint x="290" y="620" as="sourcePoint" />
            <mxPoint x="290" y="520" as="targetPoint" />
          </mxGeometry>
        </mxCell>
        <mxCell id="O7KzEF7yCn1SDMwKWR9x-15" value="" style="endArrow=none;dashed=1;html=1;rounded=0;fontSize=20;" parent="1" edge="1">
          <mxGeometry width="50" height="50" relative="1" as="geometry">
            <mxPoint x="140" y="520" as="sourcePoint" />
            <mxPoint x="290" y="520" as="targetPoint" />
          </mxGeometry>
        </mxCell>
        <mxCell id="O7KzEF7yCn1SDMwKWR9x-16" value="" style="endArrow=none;dashed=1;html=1;rounded=0;fontSize=20;" parent="1" edge="1">
          <mxGeometry width="50" height="50" relative="1" as="geometry">
            <mxPoint x="143" y="619" as="sourcePoint" />
            <mxPoint x="293" y="619" as="targetPoint" />
          </mxGeometry>
        </mxCell>
        <mxCell id="O7KzEF7yCn1SDMwKWR9x-17" value="&lt;font style=&quot;font-size: 12px&quot;&gt;Main API&lt;/font&gt;" style="text;html=1;strokeColor=none;fillColor=none;align=center;verticalAlign=middle;whiteSpace=wrap;rounded=0;fontSize=20;" parent="1" vertex="1">
          <mxGeometry x="150" y="520" width="60" height="30" as="geometry" />
        </mxCell>
        <mxCell id="O7KzEF7yCn1SDMwKWR9x-18" value="&lt;p class=&quot;MsoNormal&quot;&gt;&lt;span style=&quot;color: rgba(0 , 0 , 0 , 0) ; font-family: monospace ; font-size: 0px&quot;&gt;sss%3CmxGraphModel%3E%3Croot%3E%3CmxCell%20id%3D%220%22%2F%3E%3CmxCell%20id%3D%221%22%20parent%3D%220%22%2F%3E%3CmxCell%20id%3D%222%22%20value%3D%22%26lt%3Bp%20class%3D%26quot%3BMsoNormal%26quot%3B%26gt%3B%26lt%3Bspan%20style%3D%26quot%3Bfont-family%3A%20%26amp%3B%2334%3Btimes%20new%20roman%26amp%3B%2334%3B%20%3B%20font-size%3A%2010.5000pt%26quot%3B%26gt%3Bquestions%26amp%3Bnbsp%3B%26lt%3B%2Fspan%26gt%3B%26lt%3Bspan%20style%3D%26quot%3Bfont-family%3A%20%26amp%3B%2334%3Btimes%20new%20roman%26amp%3B%2334%3B%20%3B%20font-size%3A%2010.5pt%26quot%3B%26gt%3Bmodule%26lt%3B%2Fspan%26gt%3B%26lt%3B%2Fp%26gt%3B%22%20style%3D%22rounded%3D1%3BwhiteSpace%3Dwrap%3Bhtml%3D1%3BfontSize%3D12%3Bglass%3D0%3BstrokeWidth%3D1%3Bshadow%3D0%3B%22%20vertex%3D%221%22%20parent%3D%221%22%3E%3CmxGeometry%20x%3D%22420%22%20y%3D%22100%22%20width%3D%22120%22%20height%3D%2240%22%20as%3D%22geometry%22%2F%3E%3C%2FmxCell%3E%3C%2Froot%3E%3C%2FmxGraphModel%&lt;/span&gt;&lt;span style=&quot;font-family: &amp;#34;times new roman&amp;#34; ; font-size: 10.5pt&quot;&gt;Check Reset Token&amp;nbsp; and update PS&lt;/span&gt;&lt;/p&gt;" style="rounded=1;whiteSpace=wrap;html=1;fontSize=12;glass=0;strokeWidth=1;shadow=0;" parent="1" vertex="1">
          <mxGeometry x="579.1474193548387" y="560" width="119.84516129032258" height="40" as="geometry" />
        </mxCell>
        <mxCell id="O7KzEF7yCn1SDMwKWR9x-19" value="" style="endArrow=none;dashed=1;html=1;rounded=0;fontSize=20;" parent="1" edge="1">
          <mxGeometry width="50" height="50" relative="1" as="geometry">
            <mxPoint x="559" y="620" as="sourcePoint" />
            <mxPoint x="559" y="520" as="targetPoint" />
          </mxGeometry>
        </mxCell>
        <mxCell id="O7KzEF7yCn1SDMwKWR9x-20" value="" style="endArrow=none;dashed=1;html=1;rounded=0;fontSize=20;" parent="1" edge="1">
          <mxGeometry width="50" height="50" relative="1" as="geometry">
            <mxPoint x="709" y="620" as="sourcePoint" />
            <mxPoint x="709" y="520" as="targetPoint" />
          </mxGeometry>
        </mxCell>
        <mxCell id="O7KzEF7yCn1SDMwKWR9x-21" value="" style="endArrow=none;dashed=1;html=1;rounded=0;fontSize=20;" parent="1" edge="1">
          <mxGeometry width="50" height="50" relative="1" as="geometry">
            <mxPoint x="559" y="520" as="sourcePoint" />
            <mxPoint x="709" y="520" as="targetPoint" />
          </mxGeometry>
        </mxCell>
        <mxCell id="O7KzEF7yCn1SDMwKWR9x-22" value="" style="endArrow=none;dashed=1;html=1;rounded=0;fontSize=20;" parent="1" edge="1">
          <mxGeometry width="50" height="50" relative="1" as="geometry">
            <mxPoint x="562" y="619" as="sourcePoint" />
            <mxPoint x="712" y="619" as="targetPoint" />
          </mxGeometry>
        </mxCell>
        <mxCell id="O7KzEF7yCn1SDMwKWR9x-23" value="&lt;font style=&quot;font-size: 12px&quot;&gt;Main API&lt;/font&gt;" style="text;html=1;strokeColor=none;fillColor=none;align=center;verticalAlign=middle;whiteSpace=wrap;rounded=0;fontSize=20;" parent="1" vertex="1">
          <mxGeometry x="569" y="520" width="60" height="30" as="geometry" />
        </mxCell>
        <mxCell id="O7KzEF7yCn1SDMwKWR9x-24" value="&lt;p class=&quot;MsoNormal&quot;&gt;&lt;span style=&quot;color: rgba(0 , 0 , 0 , 0) ; font-family: monospace ; font-size: 0px&quot;&gt;sss%3CmxGraphModel%3E%3Croot%3E%3CmxCell%20id%3D%220%22%2F%3E%3CmxCell%20id%3D%221%22%20parent%3D%220%22%2F%3E%3CmxCell%20id%3D%222%22%20value%3D%22%26lt%3Bp%20class%3D%26quot%3BMsoNormal%26quot%3B%26gt%3B%26lt%3Bspan%20style%3D%26quot%3Bfont-family%3A%20%26amp%3B%2334%3Btimes%20new%20roman%26amp%3B%2334%3B%20%3B%20font-size%3A%2010.5000pt%26quot%3B%26gt%3Bquestions%26amp%3Bnbsp%3B%26lt%3B%2Fspan%26gt%3B%26lt%3Bspan%20style%3D%26quot%3Bfont-family%3A%20%26amp%3B%2334%3Btimes%20new%20roman%26amp%3B%2334%3B%20%3B%20font-size%3A%2010.5pt%26quot%3B%26gt%3Bmodule%26lt%3B%2Fspan%26gt%3B%26lt%3B%2Fp%26gt%3B%22%20style%3D%22rounded%3D1%3BwhiteSpace%3Dwrap%3Bhtml%3D1%3BfontSize%3D12%3Bglass%3D0%3BstrokeWidth%3D1%3Bshadow%3D0%3B%22%20vertex%3D%221%22%20parent%3D%221%22%3E%3CmxGeometry%20x%3D%22420%22%20y%3D%22100%22%20width%3D%22120%22%20height%3D%2240%22%20as%3D%22geometry%22%2F%3E%3C%2FmxCell%3E%3C%2Froot%3E%3C%2FmxGraphModel%&lt;/span&gt;&lt;span style=&quot;font-family: &amp;#34;times new roman&amp;#34; ; font-size: 10.5pt&quot;&gt;Update Info&lt;/span&gt;&lt;/p&gt;" style="rounded=1;whiteSpace=wrap;html=1;fontSize=12;glass=0;strokeWidth=1;shadow=0;" parent="1" vertex="1">
          <mxGeometry x="280.9974193548387" y="105" width="119.84516129032258" height="40" as="geometry" />
        </mxCell>
        <mxCell id="O7KzEF7yCn1SDMwKWR9x-25" value="&lt;p class=&quot;MsoNormal&quot;&gt;&lt;span style=&quot;color: rgba(0 , 0 , 0 , 0) ; font-family: monospace ; font-size: 0px&quot;&gt;sss%3CmxGraphModel%3E%3Croot%3E%3CmxCell%20id%3D%220%22%2F%3E%3CmxCell%20id%3D%221%22%20parent%3D%220%22%2F%3E%3CmxCell%20id%3D%222%22%20value%3D%22%26lt%3Bp%20class%3D%26quot%3BMsoNormal%26quot%3B%26gt%3B%26lt%3Bspan%20style%3D%26quot%3Bfont-family%3A%20%26amp%3B%2334%3Btimes%20new%20roman%26amp%3B%2334%3B%20%3B%20font-size%3A%2010.5000pt%26quot%3B%26gt%3Bquestions%26amp%3Bnbsp%3B%26lt%3B%2Fspan%26gt%3B%26lt%3Bspan%20style%3D%26quot%3Bfont-family%3A%20%26amp%3B%2334%3Btimes%20new%20roman%26amp%3B%2334%3B%20%3B%20font-size%3A%2010.5pt%26quot%3B%26gt%3Bmodule%26lt%3B%2Fspan%26gt%3B%26lt%3B%2Fp%26gt%3B%22%20style%3D%22rounded%3D1%3BwhiteSpace%3Dwrap%3Bhtml%3D1%3BfontSize%3D12%3Bglass%3D0%3BstrokeWidth%3D1%3Bshadow%3D0%3B%22%20vertex%3D%221%22%20parent%3D%221%22%3E%3CmxGeometry%20x%3D%22420%22%20y%3D%22100%22%20width%3D%22120%22%20height%3D%2240%22%20as%3D%22geometry%22%2F%3E%3C%2FmxCell%3E%3C%2Froot%3E%3C%2FmxGraphModel%&lt;/span&gt;&lt;span style=&quot;font-family: &amp;#34;times new roman&amp;#34; ; font-size: 10.5pt&quot;&gt;Sign UP&lt;/span&gt;&lt;/p&gt;" style="rounded=1;whiteSpace=wrap;html=1;fontSize=12;glass=0;strokeWidth=1;shadow=0;" parent="1" vertex="1">
          <mxGeometry x="139.9974193548387" y="104" width="119.84516129032258" height="40" as="geometry" />
        </mxCell>
        <mxCell id="O7KzEF7yCn1SDMwKWR9x-26" value="&lt;p class=&quot;MsoNormal&quot;&gt;&lt;span style=&quot;color: rgba(0 , 0 , 0 , 0) ; font-family: monospace ; font-size: 0px&quot;&gt;sss%3CmxGraphModel%3E%3Croot%3E%3CmxCell%20id%3D%220%22%2F%3E%3CmxCell%20id%3D%221%22%20parent%3D%220%22%2F%3E%3CmxCell%20id%3D%222%22%20value%3D%22%26lt%3Bp%20class%3D%26quot%3BMsoNormal%26quot%3B%26gt%3B%26lt%3Bspan%20style%3D%26quot%3Bfont-family%3A%20%26amp%3B%2334%3Btimes%20new%20roman%26amp%3B%2334%3B%20%3B%20font-size%3A%2010.5000pt%26quot%3B%26gt%3Bquestions%26amp%3Bnbsp%3B%26lt%3B%2Fspan%26gt%3B%26lt%3Bspan%20style%3D%26quot%3Bfont-family%3A%20%26amp%3B%2334%3Btimes%20new%20roman%26amp%3B%2334%3B%20%3B%20font-size%3A%2010.5pt%26quot%3B%26gt%3Bmodule%26lt%3B%2Fspan%26gt%3B%26lt%3B%2Fp%26gt%3B%22%20style%3D%22rounded%3D1%3BwhiteSpace%3Dwrap%3Bhtml%3D1%3BfontSize%3D12%3Bglass%3D0%3BstrokeWidth%3D1%3Bshadow%3D0%3B%22%20vertex%3D%221%22%20parent%3D%221%22%3E%3CmxGeometry%20x%3D%22420%22%20y%3D%22100%22%20width%3D%22120%22%20height%3D%2240%22%20as%3D%22geometry%22%2F%3E%3C%2FmxCell%3E%3C%2Froot%3E%3C%2FmxGraphModel%&lt;/span&gt;&lt;span style=&quot;font-family: &amp;#34;times new roman&amp;#34; ; font-size: 10.5pt&quot;&gt;Login&lt;/span&gt;&lt;/p&gt;" style="rounded=1;whiteSpace=wrap;html=1;fontSize=12;glass=0;strokeWidth=1;shadow=0;" parent="1" vertex="1">
          <mxGeometry x="431.72741935483873" y="107" width="119.84516129032258" height="40" as="geometry" />
        </mxCell>
        <mxCell id="O7KzEF7yCn1SDMwKWR9x-27" value="&lt;p class=&quot;MsoNormal&quot;&gt;&lt;span style=&quot;color: rgba(0 , 0 , 0 , 0) ; font-family: monospace ; font-size: 0px&quot;&gt;sss%3CmxGraphModel%3E%3Croot%3E%3CmxCell%20id%3D%220%22%2F%3E%3CmxCell%20id%3D%221%22%20parent%3D%220%22%2F%3E%3CmxCell%20id%3D%222%22%20value%3D%22%26lt%3Bp%20class%3D%26quot%3BMsoNormal%26quot%3B%26gt%3B%26lt%3Bspan%20style%3D%26quot%3Bfont-family%3A%20%26amp%3B%2334%3Btimes%20new%20roman%26amp%3B%2334%3B%20%3B%20font-size%3A%2010.5000pt%26quot%3B%26gt%3Bquestions%26amp%3Bnbsp%3B%26lt%3B%2Fspan%26gt%3B%26lt%3Bspan%20style%3D%26quot%3Bfont-family%3A%20%26amp%3B%2334%3Btimes%20new%20roman%26amp%3B%2334%3B%20%3B%20font-size%3A%2010.5pt%26quot%3B%26gt%3Bmodule%26lt%3B%2Fspan%26gt%3B%26lt%3B%2Fp%26gt%3B%22%20style%3D%22rounded%3D1%3BwhiteSpace%3Dwrap%3Bhtml%3D1%3BfontSize%3D12%3Bglass%3D0%3BstrokeWidth%3D1%3Bshadow%3D0%3B%22%20vertex%3D%221%22%20parent%3D%221%22%3E%3CmxGeometry%20x%3D%22420%22%20y%3D%22100%22%20width%3D%22120%22%20height%3D%2240%22%20as%3D%22geometry%22%2F%3E%3C%2FmxCell%3E%3C%2Froot%3E%3C%2FmxGraphModel%&lt;/span&gt;&lt;span style=&quot;font-family: &amp;#34;times new roman&amp;#34; ; font-size: 10.5pt&quot;&gt;Update Password&lt;/span&gt;&lt;/p&gt;" style="rounded=1;whiteSpace=wrap;html=1;fontSize=12;glass=0;strokeWidth=1;shadow=0;" parent="1" vertex="1">
          <mxGeometry x="576.5774193548388" y="108" width="119.84516129032258" height="40" as="geometry" />
        </mxCell>
        <mxCell id="O7KzEF7yCn1SDMwKWR9x-28" value="" style="endArrow=none;dashed=1;html=1;rounded=0;fontSize=20;" parent="1" edge="1">
          <mxGeometry width="50" height="50" relative="1" as="geometry">
            <mxPoint x="130" y="166" as="sourcePoint" />
            <mxPoint x="130" y="66" as="targetPoint" />
          </mxGeometry>
        </mxCell>
        <mxCell id="O7KzEF7yCn1SDMwKWR9x-29" value="" style="endArrow=none;dashed=1;html=1;rounded=0;fontSize=20;" parent="1" edge="1">
          <mxGeometry width="50" height="50" relative="1" as="geometry">
            <mxPoint x="710" y="166" as="sourcePoint" />
            <mxPoint x="710" y="70" as="targetPoint" />
          </mxGeometry>
        </mxCell>
        <mxCell id="O7KzEF7yCn1SDMwKWR9x-30" value="" style="endArrow=none;dashed=1;html=1;rounded=0;fontSize=20;" parent="1" edge="1">
          <mxGeometry width="50" height="50" relative="1" as="geometry">
            <mxPoint x="130" y="66" as="sourcePoint" />
            <mxPoint x="710" y="70" as="targetPoint" />
          </mxGeometry>
        </mxCell>
        <mxCell id="O7KzEF7yCn1SDMwKWR9x-31" value="" style="endArrow=none;dashed=1;html=1;rounded=0;fontSize=20;" parent="1" edge="1">
          <mxGeometry width="50" height="50" relative="1" as="geometry">
            <mxPoint x="133" y="165" as="sourcePoint" />
            <mxPoint x="710" y="170" as="targetPoint" />
          </mxGeometry>
        </mxCell>
        <mxCell id="O7KzEF7yCn1SDMwKWR9x-32" value="&lt;font style=&quot;font-size: 12px&quot;&gt;Main API&lt;/font&gt;" style="text;html=1;strokeColor=none;fillColor=none;align=center;verticalAlign=middle;whiteSpace=wrap;rounded=0;fontSize=20;" parent="1" vertex="1">
          <mxGeometry x="140" y="66" width="60" height="30" as="geometry" />
        </mxCell>
        <mxCell id="O7KzEF7yCn1SDMwKWR9x-33" value="&lt;p class=&quot;MsoNormal&quot;&gt;&lt;span style=&quot;color: rgba(0 , 0 , 0 , 0) ; font-family: monospace ; font-size: 0px&quot;&gt;sss%3CmxGraphModel%3E%3Croot%3E%3CmxCell%20id%3D%220%22%2F%3E%3CmxCell%20id%3D%221%22%20parent%3D%220%22%2F%3E%3CmxCell%20id%3D%222%22%20value%3D%22%26lt%3Bp%20class%3D%26quot%3BMsoNormal%26quot%3B%26gt%3B%26lt%3Bspan%20style%3D%26quot%3Bfont-family%3A%20%26amp%3B%2334%3Btimes%20new%20roman%26amp%3B%2334%3B%20%3B%20font-size%3A%2010.5000pt%26quot%3B%26gt%3Bquestions%26amp%3Bnbsp%3B%26lt%3B%2Fspan%26gt%3B%26lt%3Bspan%20style%3D%26quot%3Bfont-family%3A%20%26amp%3B%2334%3Btimes%20new%20roman%26amp%3B%2334%3B%20%3B%20font-size%3A%2010.5pt%26quot%3B%26gt%3Bmodule%26lt%3B%2Fspan%26gt%3B%26lt%3B%2Fp%26gt%3B%22%20style%3D%22rounded%3D1%3BwhiteSpace%3Dwrap%3Bhtml%3D1%3BfontSize%3D12%3Bglass%3D0%3BstrokeWidth%3D1%3Bshadow%3D0%3B%22%20vertex%3D%221%22%20parent%3D%221%22%3E%3CmxGeometry%20x%3D%22420%22%20y%3D%22100%22%20width%3D%22120%22%20height%3D%2240%22%20as%3D%22geometry%22%2F%3E%3C%2FmxCell%3E%3C%2Froot%3E%3C%2FmxGraphModel%&lt;/span&gt;&lt;span style=&quot;font-family: &amp;#34;times new roman&amp;#34; ; font-size: 10.5pt&quot;&gt;Send email Puppteteer&amp;nbsp;&lt;/span&gt;&lt;/p&gt;" style="rounded=1;whiteSpace=wrap;html=1;fontSize=12;glass=0;strokeWidth=1;shadow=0;" parent="1" vertex="1">
          <mxGeometry x="50.14741935483872" y="440" width="119.84516129032258" height="40" as="geometry" />
        </mxCell>
        <mxCell id="O7KzEF7yCn1SDMwKWR9x-34" value="User&#39;s email" style="rounded=0;whiteSpace=wrap;html=1;" parent="1" vertex="1">
          <mxGeometry x="65.27" y="297" width="89.73" height="30" as="geometry" />
        </mxCell>
        <mxCell id="O7KzEF7yCn1SDMwKWR9x-35" value="" style="endArrow=none;dashed=1;html=1;rounded=0;fontSize=20;" parent="1" edge="1">
          <mxGeometry width="50" height="50" relative="1" as="geometry">
            <mxPoint x="40" y="500" as="sourcePoint" />
            <mxPoint x="40" y="400" as="targetPoint" />
          </mxGeometry>
        </mxCell>
        <mxCell id="O7KzEF7yCn1SDMwKWR9x-36" value="" style="endArrow=none;dashed=1;html=1;rounded=0;fontSize=20;" parent="1" edge="1">
          <mxGeometry width="50" height="50" relative="1" as="geometry">
            <mxPoint x="190" y="500" as="sourcePoint" />
            <mxPoint x="190" y="400" as="targetPoint" />
          </mxGeometry>
        </mxCell>
        <mxCell id="O7KzEF7yCn1SDMwKWR9x-37" value="" style="endArrow=none;dashed=1;html=1;rounded=0;fontSize=20;" parent="1" edge="1">
          <mxGeometry width="50" height="50" relative="1" as="geometry">
            <mxPoint x="40" y="400" as="sourcePoint" />
            <mxPoint x="190" y="400" as="targetPoint" />
          </mxGeometry>
        </mxCell>
        <mxCell id="O7KzEF7yCn1SDMwKWR9x-38" value="" style="endArrow=none;dashed=1;html=1;rounded=0;fontSize=20;" parent="1" edge="1">
          <mxGeometry width="50" height="50" relative="1" as="geometry">
            <mxPoint x="43" y="499" as="sourcePoint" />
            <mxPoint x="193" y="499" as="targetPoint" />
          </mxGeometry>
        </mxCell>
        <mxCell id="O7KzEF7yCn1SDMwKWR9x-39" value="&lt;font style=&quot;font-size: 12px&quot;&gt;Main API&lt;/font&gt;" style="text;html=1;strokeColor=none;fillColor=none;align=center;verticalAlign=middle;whiteSpace=wrap;rounded=0;fontSize=20;" parent="1" vertex="1">
          <mxGeometry x="41" y="394" width="60" height="30" as="geometry" />
        </mxCell>
        <mxCell id="O7KzEF7yCn1SDMwKWR9x-42" value="" style="endArrow=classic;html=1;rounded=0;exitX=0;exitY=1;exitDx=0;exitDy=0;entryX=0.5;entryY=0;entryDx=0;entryDy=0;startArrow=classic;startFill=1;" parent="1" source="O7KzEF7yCn1SDMwKWR9x-1" target="O7KzEF7yCn1SDMwKWR9x-7" edge="1">
          <mxGeometry width="50" height="50" relative="1" as="geometry">
            <mxPoint x="390" y="430" as="sourcePoint" />
            <mxPoint x="330" y="440" as="targetPoint" />
          </mxGeometry>
        </mxCell>
        <mxCell id="O7KzEF7yCn1SDMwKWR9x-43" value="&lt;span style=&quot;font-size: 11px&quot;&gt;&lt;b&gt;send Post Request&lt;/b&gt;&lt;/span&gt;" style="text;html=1;strokeColor=none;fillColor=none;align=center;verticalAlign=middle;whiteSpace=wrap;rounded=0;fontSize=12;rotation=326;" parent="1" vertex="1">
          <mxGeometry x="200" y="512" width="120" height="26.15" as="geometry" />
        </mxCell>
        <mxCell id="O7KzEF7yCn1SDMwKWR9x-44" value="" style="endArrow=classic;html=1;rounded=0;exitX=0.5;exitY=1;exitDx=0;exitDy=0;entryX=0.25;entryY=0;entryDx=0;entryDy=0;startArrow=classic;startFill=1;" parent="1" source="O7KzEF7yCn1SDMwKWR9x-7" target="O7KzEF7yCn1SDMwKWR9x-10" edge="1">
          <mxGeometry width="50" height="50" relative="1" as="geometry">
            <mxPoint x="450" y="520" as="sourcePoint" />
            <mxPoint x="500" y="470" as="targetPoint" />
          </mxGeometry>
        </mxCell>
        <mxCell id="O7KzEF7yCn1SDMwKWR9x-45" value="&lt;span style=&quot;font-size: 11px&quot;&gt;&lt;b&gt;Start&lt;/b&gt;&lt;/span&gt;" style="text;html=1;strokeColor=none;fillColor=none;align=center;verticalAlign=middle;whiteSpace=wrap;rounded=0;fontSize=12;rotation=48;" parent="1" vertex="1">
          <mxGeometry x="309" y="509" width="120" height="26.15" as="geometry" />
        </mxCell>
        <mxCell id="O7KzEF7yCn1SDMwKWR9x-46" value="" style="endArrow=classic;startArrow=classic;html=1;rounded=0;exitX=0.5;exitY=0;exitDx=0;exitDy=0;entryX=0.5;entryY=1;entryDx=0;entryDy=0;" parent="1" source="O7KzEF7yCn1SDMwKWR9x-10" target="O7KzEF7yCn1SDMwKWR9x-1" edge="1">
          <mxGeometry width="50" height="50" relative="1" as="geometry">
            <mxPoint x="450" y="520" as="sourcePoint" />
            <mxPoint x="500" y="470" as="targetPoint" />
          </mxGeometry>
        </mxCell>
        <mxCell id="O7KzEF7yCn1SDMwKWR9x-47" value="&lt;span style=&quot;font-size: 11px&quot;&gt;&lt;b&gt;&lt;font color=&quot;#ff6666&quot;&gt;*&lt;/font&gt;Ask for Data&lt;/b&gt;&lt;/span&gt;" style="text;html=1;strokeColor=none;fillColor=none;align=center;verticalAlign=middle;whiteSpace=wrap;rounded=0;fontSize=12;rotation=-90;" parent="1" vertex="1">
          <mxGeometry x="352" y="468" width="120" height="26.15" as="geometry" />
        </mxCell>
        <mxCell id="O7KzEF7yCn1SDMwKWR9x-48" value="&lt;b style=&quot;font-size: 11px&quot;&gt;&lt;font color=&quot;#ff6666&quot;&gt;*&lt;/font&gt;&lt;/b&gt;&lt;span style=&quot;font-size: 11px&quot;&gt;&lt;b&gt;Enter Data&lt;/b&gt;&lt;/span&gt;" style="text;html=1;strokeColor=none;fillColor=none;align=center;verticalAlign=middle;whiteSpace=wrap;rounded=0;fontSize=12;rotation=-90;" parent="1" vertex="1">
          <mxGeometry x="370" y="467" width="120" height="26.15" as="geometry" />
        </mxCell>
        <mxCell id="O7KzEF7yCn1SDMwKWR9x-49" value="&lt;b style=&quot;font-size: 15px&quot;&gt;note: &lt;font color=&quot;#ff6666&quot;&gt;* &lt;/font&gt;symbol means the action is more than once&amp;nbsp;&lt;/b&gt;" style="text;html=1;strokeColor=none;fillColor=none;align=left;verticalAlign=middle;whiteSpace=wrap;rounded=0;fontSize=9;" parent="1" vertex="1">
          <mxGeometry x="-18.43" y="616" width="382.43" height="30" as="geometry" />
        </mxCell>
        <mxCell id="O7KzEF7yCn1SDMwKWR9x-50" value="&lt;span style=&quot;font-size: 11px&quot;&gt;&lt;b&gt;Return Data&lt;/b&gt;&lt;/span&gt;" style="text;html=1;strokeColor=none;fillColor=none;align=center;verticalAlign=middle;whiteSpace=wrap;rounded=0;fontSize=12;rotation=51;" parent="1" vertex="1">
          <mxGeometry x="299" y="523" width="120" height="26.15" as="geometry" />
        </mxCell>
        <mxCell id="O7KzEF7yCn1SDMwKWR9x-51" value="" style="endArrow=classic;startArrow=classic;html=1;rounded=0;fontColor=#FF6666;exitX=0.5;exitY=0;exitDx=0;exitDy=0;entryX=0.25;entryY=1;entryDx=0;entryDy=0;startFill=1;endFill=1;" parent="1" source="O7KzEF7yCn1SDMwKWR9x-12" target="O7KzEF7yCn1SDMwKWR9x-7" edge="1">
          <mxGeometry width="50" height="50" relative="1" as="geometry">
            <mxPoint x="290" y="547.08" as="sourcePoint" />
            <mxPoint x="310" y="510" as="targetPoint" />
          </mxGeometry>
        </mxCell>
        <mxCell id="O7KzEF7yCn1SDMwKWR9x-52" value="&lt;span style=&quot;font-size: 11px&quot;&gt;&lt;b&gt;Command&lt;/b&gt;&lt;/span&gt;" style="text;html=1;strokeColor=none;fillColor=none;align=center;verticalAlign=middle;whiteSpace=wrap;rounded=0;fontSize=12;rotation=321;direction=west;" parent="1" vertex="1">
          <mxGeometry x="310" y="431" width="120" height="26.15" as="geometry" />
        </mxCell>
        <mxCell id="O7KzEF7yCn1SDMwKWR9x-56" value="" style="endArrow=classic;html=1;rounded=0;fontColor=#FF6666;exitX=0;exitY=0.25;exitDx=0;exitDy=0;entryX=0.5;entryY=1;entryDx=0;entryDy=0;" parent="1" source="O7KzEF7yCn1SDMwKWR9x-12" target="O7KzEF7yCn1SDMwKWR9x-33" edge="1">
          <mxGeometry width="50" height="50" relative="1" as="geometry">
            <mxPoint x="320" y="540" as="sourcePoint" />
            <mxPoint x="70" y="580" as="targetPoint" />
            <Array as="points">
              <mxPoint x="110" y="570" />
            </Array>
          </mxGeometry>
        </mxCell>
        <mxCell id="O7KzEF7yCn1SDMwKWR9x-57" value="&lt;span style=&quot;font-size: 11px&quot;&gt;&lt;b&gt;send Post Request&lt;/b&gt;&lt;/span&gt;" style="text;html=1;strokeColor=none;fillColor=none;align=center;verticalAlign=middle;whiteSpace=wrap;rounded=0;fontSize=12;rotation=-90;" parent="1" vertex="1">
          <mxGeometry x="40" y="521" width="120" height="26.15" as="geometry" />
        </mxCell>
        <mxCell id="O7KzEF7yCn1SDMwKWR9x-58" value="" style="endArrow=classic;html=1;rounded=0;fontColor=#FF6666;exitX=0.5;exitY=0;exitDx=0;exitDy=0;entryX=0.5;entryY=1;entryDx=0;entryDy=0;" parent="1" target="O7KzEF7yCn1SDMwKWR9x-34" edge="1">
          <mxGeometry width="50" height="50" relative="1" as="geometry">
            <mxPoint x="109.07000000000016" y="440" as="sourcePoint" />
            <mxPoint x="116.18988281250017" y="327" as="targetPoint" />
          </mxGeometry>
        </mxCell>
        <mxCell id="O7KzEF7yCn1SDMwKWR9x-60" value="" style="endArrow=classic;startArrow=classic;html=1;rounded=0;fontColor=#FF6666;entryX=0;entryY=0.75;entryDx=0;entryDy=0;exitX=0;exitY=0.5;exitDx=0;exitDy=0;exitPerimeter=0;" parent="1" source="O7KzEF7yCn1SDMwKWR9x-9" target="O7KzEF7yCn1SDMwKWR9x-12" edge="1">
          <mxGeometry width="50" height="50" relative="1" as="geometry">
            <mxPoint y="-60" as="sourcePoint" />
            <mxPoint x="560" y="340" as="targetPoint" />
            <Array as="points">
              <mxPoint x="-10" />
              <mxPoint x="-10" y="590" />
            </Array>
          </mxGeometry>
        </mxCell>
        <mxCell id="O7KzEF7yCn1SDMwKWR9x-61" value="&lt;span style=&quot;font-size: 11px&quot;&gt;&lt;b&gt;Respone&lt;/b&gt;&lt;/span&gt;" style="text;html=1;strokeColor=none;fillColor=none;align=center;verticalAlign=middle;whiteSpace=wrap;rounded=0;fontSize=12;rotation=326;" parent="1" vertex="1">
          <mxGeometry x="211" y="523" width="120" height="26.15" as="geometry" />
        </mxCell>
        <mxCell id="O7KzEF7yCn1SDMwKWR9x-62" value="&lt;span style=&quot;font-size: 11px&quot;&gt;&lt;b&gt;Respone&lt;/b&gt;&lt;/span&gt;" style="text;html=1;strokeColor=none;fillColor=none;align=center;verticalAlign=middle;whiteSpace=wrap;rounded=0;fontSize=12;rotation=321;direction=west;" parent="1" vertex="1">
          <mxGeometry x="301" y="421" width="120" height="26.15" as="geometry" />
        </mxCell>
        <mxCell id="O7KzEF7yCn1SDMwKWR9x-65" value="&lt;span style=&quot;font-size: 11px&quot;&gt;&lt;b&gt;check user&#39;s Email&lt;/b&gt;&lt;/span&gt;" style="text;html=1;strokeColor=none;fillColor=none;align=center;verticalAlign=middle;whiteSpace=wrap;rounded=0;fontSize=12;rotation=0;" parent="1" vertex="1">
          <mxGeometry x="-16" y="567" width="120" height="26.15" as="geometry" />
        </mxCell>
        <mxCell id="O7KzEF7yCn1SDMwKWR9x-66" value="&lt;span style=&quot;font-size: 11px&quot;&gt;&lt;b&gt;Respone&lt;/b&gt;&lt;/span&gt;" style="text;html=1;strokeColor=none;fillColor=none;align=center;verticalAlign=middle;whiteSpace=wrap;rounded=0;fontSize=12;rotation=0;" parent="1" vertex="1">
          <mxGeometry x="-9" y="584.15" width="120" height="26.15" as="geometry" />
        </mxCell>
        <mxCell id="O7KzEF7yCn1SDMwKWR9x-67" value="" style="endArrow=classic;startArrow=classic;html=1;rounded=0;fontColor=#FF6666;entryX=1;entryY=1;entryDx=0;entryDy=0;" parent="1" source="O7KzEF7yCn1SDMwKWR9x-11" target="O7KzEF7yCn1SDMwKWR9x-1" edge="1">
          <mxGeometry width="50" height="50" relative="1" as="geometry">
            <mxPoint x="480" y="450" as="sourcePoint" />
            <mxPoint x="300" y="370" as="targetPoint" />
          </mxGeometry>
        </mxCell>
        <mxCell id="O7KzEF7yCn1SDMwKWR9x-68" value="&lt;span style=&quot;font-size: 11px&quot;&gt;&lt;b&gt;Command&lt;/b&gt;&lt;/span&gt;" style="text;html=1;strokeColor=none;fillColor=none;align=center;verticalAlign=middle;whiteSpace=wrap;rounded=0;fontSize=12;rotation=45;direction=west;" parent="1" vertex="1">
          <mxGeometry x="419" y="423" width="120" height="26.15" as="geometry" />
        </mxCell>
        <mxCell id="O7KzEF7yCn1SDMwKWR9x-69" value="&lt;span style=&quot;font-size: 11px&quot;&gt;&lt;b&gt;Response&lt;/b&gt;&lt;/span&gt;" style="text;html=1;strokeColor=none;fillColor=none;align=center;verticalAlign=middle;whiteSpace=wrap;rounded=0;fontSize=12;rotation=44;direction=west;" parent="1" vertex="1">
          <mxGeometry x="404" y="434" width="120" height="26.15" as="geometry" />
        </mxCell>
        <mxCell id="O7KzEF7yCn1SDMwKWR9x-70" value="" style="endArrow=classic;startArrow=classic;html=1;rounded=0;fontColor=#FF6666;entryX=0;entryY=0;entryDx=0;entryDy=0;exitX=0.75;exitY=0;exitDx=0;exitDy=0;" parent="1" source="O7KzEF7yCn1SDMwKWR9x-10" target="O7KzEF7yCn1SDMwKWR9x-69" edge="1">
          <mxGeometry width="50" height="50" relative="1" as="geometry">
            <mxPoint x="380" y="560" as="sourcePoint" />
            <mxPoint x="540" y="500" as="targetPoint" />
          </mxGeometry>
        </mxCell>
        <mxCell id="O7KzEF7yCn1SDMwKWR9x-71" value="&lt;span style=&quot;font-size: 11px&quot;&gt;&lt;b&gt;Start&lt;/b&gt;&lt;/span&gt;" style="text;html=1;strokeColor=none;fillColor=none;align=center;verticalAlign=middle;whiteSpace=wrap;rounded=0;fontSize=12;rotation=308;" parent="1" vertex="1">
          <mxGeometry x="409" y="511" width="120" height="26.15" as="geometry" />
        </mxCell>
        <mxCell id="O7KzEF7yCn1SDMwKWR9x-72" value="&lt;span style=&quot;font-size: 11px&quot;&gt;&lt;b&gt;Return Data&lt;/b&gt;&lt;/span&gt;" style="text;html=1;strokeColor=none;fillColor=none;align=center;verticalAlign=middle;whiteSpace=wrap;rounded=0;fontSize=12;rotation=-52;" parent="1" vertex="1">
          <mxGeometry x="423" y="521" width="120" height="26.15" as="geometry" />
        </mxCell>
        <mxCell id="O7KzEF7yCn1SDMwKWR9x-74" value="" style="endArrow=classic;startArrow=classic;html=1;rounded=0;fontColor=#FF6666;exitX=1;exitY=0.5;exitDx=0;exitDy=0;" parent="1" source="O7KzEF7yCn1SDMwKWR9x-11" target="O7KzEF7yCn1SDMwKWR9x-18" edge="1">
          <mxGeometry width="50" height="50" relative="1" as="geometry">
            <mxPoint x="560" y="430" as="sourcePoint" />
            <mxPoint x="710" y="420" as="targetPoint" />
            <Array as="points">
              <mxPoint x="640" y="480" />
            </Array>
          </mxGeometry>
        </mxCell>
        <mxCell id="O7KzEF7yCn1SDMwKWR9x-76" value="&lt;span style=&quot;font-size: 11px&quot;&gt;&lt;b&gt;send Post Request&lt;/b&gt;&lt;/span&gt;" style="text;html=1;strokeColor=none;fillColor=none;align=center;verticalAlign=middle;whiteSpace=wrap;rounded=0;fontSize=12;rotation=0;" parent="1" vertex="1">
          <mxGeometry x="570" y="460" width="120" height="26.15" as="geometry" />
        </mxCell>
        <mxCell id="O7KzEF7yCn1SDMwKWR9x-78" value="&lt;span style=&quot;font-size: 11px&quot;&gt;&lt;b&gt;Respone&lt;/b&gt;&lt;/span&gt;" style="text;html=1;strokeColor=none;fillColor=none;align=center;verticalAlign=middle;whiteSpace=wrap;rounded=0;fontSize=12;rotation=0;" parent="1" vertex="1">
          <mxGeometry x="553" y="474" width="120" height="26.15" as="geometry" />
        </mxCell>
        <mxCell id="O7KzEF7yCn1SDMwKWR9x-80" value="" style="endArrow=classic;startArrow=classic;html=1;rounded=0;fontColor=#FF6666;exitX=1;exitY=0.75;exitDx=0;exitDy=0;entryX=1;entryY=0.5;entryDx=0;entryDy=0;entryPerimeter=0;" parent="1" source="O7KzEF7yCn1SDMwKWR9x-18" target="O7KzEF7yCn1SDMwKWR9x-9" edge="1">
          <mxGeometry width="50" height="50" relative="1" as="geometry">
            <mxPoint x="650" y="330" as="sourcePoint" />
            <mxPoint x="760" y="-30" as="targetPoint" />
            <Array as="points">
              <mxPoint x="780" y="590" />
              <mxPoint x="780" />
            </Array>
          </mxGeometry>
        </mxCell>
        <mxCell id="O7KzEF7yCn1SDMwKWR9x-81" value="&lt;b style=&quot;font-size: 11px&quot;&gt;&lt;font color=&quot;#ff6666&quot;&gt;*&lt;/font&gt;&lt;/b&gt;&lt;span style=&quot;font-size: 11px&quot;&gt;&lt;b&gt;Query&lt;/b&gt;&lt;/span&gt;" style="text;html=1;strokeColor=none;fillColor=none;align=center;verticalAlign=middle;whiteSpace=wrap;rounded=0;fontSize=12;rotation=-90;" parent="1" vertex="1">
          <mxGeometry x="712" y="359" width="120" height="26.15" as="geometry" />
        </mxCell>
        <mxCell id="O7KzEF7yCn1SDMwKWR9x-82" value="&lt;b style=&quot;font-size: 11px&quot;&gt;&lt;font color=&quot;#ff6666&quot;&gt;*&lt;/font&gt;&lt;/b&gt;&lt;span style=&quot;font-size: 11px&quot;&gt;&lt;b&gt;Return Data&lt;/b&gt;&lt;/span&gt;" style="text;html=1;strokeColor=none;fillColor=none;align=center;verticalAlign=middle;whiteSpace=wrap;rounded=0;fontSize=12;rotation=-90;" parent="1" vertex="1">
          <mxGeometry x="728" y="362" width="120" height="26.15" as="geometry" />
        </mxCell>
        <mxCell id="O7KzEF7yCn1SDMwKWR9x-84" value="" style="endArrow=classic;startArrow=classic;html=1;rounded=0;fontColor=#FF6666;entryX=0.601;entryY=1.067;entryDx=0;entryDy=0;entryPerimeter=0;exitX=0;exitY=0;exitDx=0;exitDy=0;" parent="1" source="O7KzEF7yCn1SDMwKWR9x-1" target="O7KzEF7yCn1SDMwKWR9x-5" edge="1">
          <mxGeometry width="50" height="50" relative="1" as="geometry">
            <mxPoint x="370" y="390" as="sourcePoint" />
            <mxPoint x="420" y="340" as="targetPoint" />
          </mxGeometry>
        </mxCell>
        <mxCell id="O7KzEF7yCn1SDMwKWR9x-85" value="&lt;span style=&quot;font-size: 11px&quot;&gt;&lt;b&gt;Command&lt;/b&gt;&lt;/span&gt;" style="text;html=1;strokeColor=none;fillColor=none;align=center;verticalAlign=middle;whiteSpace=wrap;rounded=0;fontSize=12;rotation=49;direction=west;" parent="1" vertex="1">
          <mxGeometry x="321" y="350" width="120" height="26.15" as="geometry" />
        </mxCell>
        <mxCell id="O7KzEF7yCn1SDMwKWR9x-87" value="&lt;span style=&quot;font-size: 11px&quot;&gt;&lt;b&gt;Respone&lt;/b&gt;&lt;/span&gt;" style="text;html=1;strokeColor=none;fillColor=none;align=center;verticalAlign=middle;whiteSpace=wrap;rounded=0;fontSize=12;rotation=52;direction=west;" parent="1" vertex="1">
          <mxGeometry x="305" y="359" width="120" height="26.15" as="geometry" />
        </mxCell>
        <mxCell id="O7KzEF7yCn1SDMwKWR9x-88" value="" style="endArrow=classic;startArrow=classic;html=1;rounded=0;fontColor=#FF6666;entryX=0.25;entryY=1;entryDx=0;entryDy=0;exitX=0.5;exitY=0;exitDx=0;exitDy=0;" parent="1" source="O7KzEF7yCn1SDMwKWR9x-5" target="O7KzEF7yCn1SDMwKWR9x-2" edge="1">
          <mxGeometry width="50" height="50" relative="1" as="geometry">
            <mxPoint x="370" y="390" as="sourcePoint" />
            <mxPoint x="420" y="340" as="targetPoint" />
          </mxGeometry>
        </mxCell>
        <mxCell id="O7KzEF7yCn1SDMwKWR9x-89" value="&lt;span style=&quot;font-size: 11px&quot;&gt;&lt;b&gt;Start&lt;/b&gt;&lt;/span&gt;" style="text;html=1;strokeColor=none;fillColor=none;align=center;verticalAlign=middle;whiteSpace=wrap;rounded=0;fontSize=12;rotation=-45;" parent="1" vertex="1">
          <mxGeometry x="321" y="258" width="75" height="26.15" as="geometry" />
        </mxCell>
        <mxCell id="O7KzEF7yCn1SDMwKWR9x-90" value="&lt;span style=&quot;font-size: 11px&quot;&gt;&lt;b&gt;Return Data&lt;/b&gt;&lt;/span&gt;" style="text;html=1;strokeColor=none;fillColor=none;align=center;verticalAlign=middle;whiteSpace=wrap;rounded=0;fontSize=12;rotation=314;" parent="1" vertex="1">
          <mxGeometry x="315" y="262" width="120" height="26.15" as="geometry" />
        </mxCell>
        <mxCell id="O7KzEF7yCn1SDMwKWR9x-91" value="" style="endArrow=classic;startArrow=classic;html=1;rounded=0;fontColor=#FF6666;entryX=0.5;entryY=1;entryDx=0;entryDy=0;exitX=0.5;exitY=0;exitDx=0;exitDy=0;" parent="1" source="O7KzEF7yCn1SDMwKWR9x-1" target="O7KzEF7yCn1SDMwKWR9x-2" edge="1">
          <mxGeometry width="50" height="50" relative="1" as="geometry">
            <mxPoint x="380" y="390" as="sourcePoint" />
            <mxPoint x="420" y="340" as="targetPoint" />
          </mxGeometry>
        </mxCell>
        <mxCell id="O7KzEF7yCn1SDMwKWR9x-92" value="&lt;span style=&quot;font-size: 11px&quot;&gt;&lt;b&gt;&lt;font color=&quot;#ff6666&quot;&gt;*&lt;/font&gt;Ask for Data&lt;/b&gt;&lt;/span&gt;" style="text;html=1;strokeColor=none;fillColor=none;align=center;verticalAlign=middle;whiteSpace=wrap;rounded=0;fontSize=12;rotation=-90;" parent="1" vertex="1">
          <mxGeometry x="367" y="300" width="120" height="26.15" as="geometry" />
        </mxCell>
        <mxCell id="O7KzEF7yCn1SDMwKWR9x-94" value="&lt;b style=&quot;font-size: 11px&quot;&gt;&lt;font color=&quot;#ff6666&quot;&gt;*&lt;/font&gt;&lt;/b&gt;&lt;span style=&quot;font-size: 11px&quot;&gt;&lt;b&gt;Enter Data&lt;/b&gt;&lt;/span&gt;" style="text;html=1;strokeColor=none;fillColor=none;align=center;verticalAlign=middle;whiteSpace=wrap;rounded=0;fontSize=12;rotation=-90;" parent="1" vertex="1">
          <mxGeometry x="353" y="305" width="120" height="26.15" as="geometry" />
        </mxCell>
        <mxCell id="O7KzEF7yCn1SDMwKWR9x-95" value="" style="endArrow=classic;startArrow=classic;html=1;rounded=0;fontColor=#FF6666;entryX=0.25;entryY=1;entryDx=0;entryDy=0;exitX=0.25;exitY=0;exitDx=0;exitDy=0;" parent="1" source="O7KzEF7yCn1SDMwKWR9x-5" target="O7KzEF7yCn1SDMwKWR9x-24" edge="1">
          <mxGeometry width="50" height="50" relative="1" as="geometry">
            <mxPoint x="370" y="390" as="sourcePoint" />
            <mxPoint x="420" y="340" as="targetPoint" />
          </mxGeometry>
        </mxCell>
        <mxCell id="O7KzEF7yCn1SDMwKWR9x-96" value="&lt;span style=&quot;font-size: 11px&quot;&gt;&lt;b&gt;send Post Request&lt;/b&gt;&lt;/span&gt;" style="text;html=1;strokeColor=none;fillColor=none;align=center;verticalAlign=middle;whiteSpace=wrap;rounded=0;fontSize=12;rotation=-90;" parent="1" vertex="1">
          <mxGeometry x="472" y="211" width="120" height="26.15" as="geometry" />
        </mxCell>
        <mxCell id="O7KzEF7yCn1SDMwKWR9x-97" value="&lt;span style=&quot;font-size: 11px&quot;&gt;&lt;b&gt;Respone&lt;/b&gt;&lt;/span&gt;" style="text;html=1;strokeColor=none;fillColor=none;align=center;verticalAlign=middle;whiteSpace=wrap;rounded=0;fontSize=12;rotation=-90;" parent="1" vertex="1">
          <mxGeometry x="260" y="215" width="120" height="26.15" as="geometry" />
        </mxCell>
        <mxCell id="O7KzEF7yCn1SDMwKWR9x-98" value="" style="endArrow=classic;startArrow=classic;html=1;rounded=0;fontColor=#FF6666;entryX=0.283;entryY=1.008;entryDx=0;entryDy=0;entryPerimeter=0;exitX=0.75;exitY=0;exitDx=0;exitDy=0;" parent="1" source="O7KzEF7yCn1SDMwKWR9x-24" target="O7KzEF7yCn1SDMwKWR9x-9" edge="1">
          <mxGeometry width="50" height="50" relative="1" as="geometry">
            <mxPoint x="370" y="270" as="sourcePoint" />
            <mxPoint x="420" y="220" as="targetPoint" />
          </mxGeometry>
        </mxCell>
        <mxCell id="O7KzEF7yCn1SDMwKWR9x-99" value="&lt;span style=&quot;font-size: 11px&quot;&gt;&lt;b&gt;Query&lt;/b&gt;&lt;/span&gt;" style="text;html=1;strokeColor=none;fillColor=none;align=center;verticalAlign=middle;whiteSpace=wrap;rounded=0;fontSize=12;rotation=287;" parent="1" vertex="1">
          <mxGeometry x="316" y="49" width="120" height="26.15" as="geometry" />
        </mxCell>
        <mxCell id="O7KzEF7yCn1SDMwKWR9x-100" value="&lt;span style=&quot;font-size: 11px&quot;&gt;&lt;b&gt;Return Data&lt;/b&gt;&lt;/span&gt;" style="text;html=1;strokeColor=none;fillColor=none;align=center;verticalAlign=middle;whiteSpace=wrap;rounded=0;fontSize=12;rotation=286;" parent="1" vertex="1">
          <mxGeometry x="332" y="51" width="120" height="26.15" as="geometry" />
        </mxCell>
        <mxCell id="O7KzEF7yCn1SDMwKWR9x-104" value="" style="endArrow=classic;startArrow=classic;html=1;rounded=0;fontColor=#FF6666;exitX=1;exitY=0;exitDx=0;exitDy=0;entryX=0.361;entryY=1.075;entryDx=0;entryDy=0;entryPerimeter=0;" parent="1" source="O7KzEF7yCn1SDMwKWR9x-1" target="O7KzEF7yCn1SDMwKWR9x-3" edge="1">
          <mxGeometry width="50" height="50" relative="1" as="geometry">
            <mxPoint x="350" y="330" as="sourcePoint" />
            <mxPoint x="400" y="280" as="targetPoint" />
          </mxGeometry>
        </mxCell>
        <mxCell id="O7KzEF7yCn1SDMwKWR9x-105" value="&lt;span style=&quot;font-size: 11px&quot;&gt;&lt;b&gt;Command&lt;/b&gt;&lt;/span&gt;" style="text;html=1;strokeColor=none;fillColor=none;align=center;verticalAlign=middle;whiteSpace=wrap;rounded=0;fontSize=12;rotation=312;direction=west;" parent="1" vertex="1">
          <mxGeometry x="404" y="349" width="120" height="26.15" as="geometry" />
        </mxCell>
        <mxCell id="O7KzEF7yCn1SDMwKWR9x-107" value="&lt;span style=&quot;font-size: 11px&quot;&gt;&lt;b&gt;Respone&lt;/b&gt;&lt;/span&gt;" style="text;html=1;strokeColor=none;fillColor=none;align=center;verticalAlign=middle;whiteSpace=wrap;rounded=0;fontSize=12;rotation=309;direction=west;" parent="1" vertex="1">
          <mxGeometry x="418" y="354" width="120" height="26.15" as="geometry" />
        </mxCell>
        <mxCell id="O7KzEF7yCn1SDMwKWR9x-108" value="" style="endArrow=classic;startArrow=classic;html=1;rounded=0;fontColor=#FF6666;entryX=0.75;entryY=1;entryDx=0;entryDy=0;exitX=0.5;exitY=0;exitDx=0;exitDy=0;" parent="1" source="O7KzEF7yCn1SDMwKWR9x-3" target="O7KzEF7yCn1SDMwKWR9x-2" edge="1">
          <mxGeometry width="50" height="50" relative="1" as="geometry">
            <mxPoint x="350" y="330" as="sourcePoint" />
            <mxPoint x="400" y="280" as="targetPoint" />
          </mxGeometry>
        </mxCell>
        <mxCell id="O7KzEF7yCn1SDMwKWR9x-109" value="&lt;span style=&quot;font-size: 11px&quot;&gt;&lt;b&gt;Start&lt;/b&gt;&lt;/span&gt;" style="text;html=1;strokeColor=none;fillColor=none;align=center;verticalAlign=middle;whiteSpace=wrap;rounded=0;fontSize=12;rotation=40;" parent="1" vertex="1">
          <mxGeometry x="451" y="257" width="75" height="26.15" as="geometry" />
        </mxCell>
        <mxCell id="O7KzEF7yCn1SDMwKWR9x-110" value="&lt;span style=&quot;font-size: 11px&quot;&gt;&lt;b&gt;Return Data&lt;/b&gt;&lt;/span&gt;" style="text;html=1;strokeColor=none;fillColor=none;align=center;verticalAlign=middle;whiteSpace=wrap;rounded=0;fontSize=12;rotation=39;" parent="1" vertex="1">
          <mxGeometry x="414" y="266" width="120" height="26.15" as="geometry" />
        </mxCell>
        <mxCell id="O7KzEF7yCn1SDMwKWR9x-111" value="" style="endArrow=classic;startArrow=classic;html=1;rounded=0;fontColor=#FF6666;exitX=0.75;exitY=0;exitDx=0;exitDy=0;entryX=0.887;entryY=1.025;entryDx=0;entryDy=0;entryPerimeter=0;" parent="1" source="O7KzEF7yCn1SDMwKWR9x-3" target="O7KzEF7yCn1SDMwKWR9x-26" edge="1">
          <mxGeometry width="50" height="50" relative="1" as="geometry">
            <mxPoint x="530" y="290" as="sourcePoint" />
            <mxPoint x="590" y="240" as="targetPoint" />
          </mxGeometry>
        </mxCell>
        <mxCell id="O7KzEF7yCn1SDMwKWR9x-113" value="&lt;span style=&quot;font-size: 11px&quot;&gt;&lt;b&gt;send Post Request&lt;/b&gt;&lt;/span&gt;" style="text;html=1;strokeColor=none;fillColor=none;align=center;verticalAlign=middle;whiteSpace=wrap;rounded=0;fontSize=12;rotation=-90;" parent="1" vertex="1">
          <mxGeometry x="242" y="204" width="120" height="26.15" as="geometry" />
        </mxCell>
        <mxCell id="O7KzEF7yCn1SDMwKWR9x-114" value="&lt;span style=&quot;font-size: 11px&quot;&gt;&lt;b&gt;Respone&lt;/b&gt;&lt;/span&gt;" style="text;html=1;strokeColor=none;fillColor=none;align=center;verticalAlign=middle;whiteSpace=wrap;rounded=0;fontSize=12;rotation=-90;" parent="1" vertex="1">
          <mxGeometry x="485" y="217" width="120" height="26.15" as="geometry" />
        </mxCell>
        <mxCell id="O7KzEF7yCn1SDMwKWR9x-115" value="" style="endArrow=classic;startArrow=classic;html=1;rounded=0;fontColor=#FF6666;entryX=0.654;entryY=1.098;entryDx=0;entryDy=0;entryPerimeter=0;exitX=0.25;exitY=0;exitDx=0;exitDy=0;" parent="1" source="O7KzEF7yCn1SDMwKWR9x-26" target="O7KzEF7yCn1SDMwKWR9x-9" edge="1">
          <mxGeometry width="50" height="50" relative="1" as="geometry">
            <mxPoint x="350" y="200" as="sourcePoint" />
            <mxPoint x="400" y="150" as="targetPoint" />
          </mxGeometry>
        </mxCell>
        <mxCell id="O7KzEF7yCn1SDMwKWR9x-116" value="&lt;span style=&quot;font-size: 11px&quot;&gt;&lt;b&gt;Query&lt;/b&gt;&lt;/span&gt;" style="text;html=1;strokeColor=none;fillColor=none;align=center;verticalAlign=middle;whiteSpace=wrap;rounded=0;fontSize=12;rotation=75;" parent="1" vertex="1">
          <mxGeometry x="401" y="56" width="120" height="26.15" as="geometry" />
        </mxCell>
        <mxCell id="O7KzEF7yCn1SDMwKWR9x-117" value="&lt;span style=&quot;font-size: 11px&quot;&gt;&lt;b&gt;Return Data&lt;/b&gt;&lt;/span&gt;" style="text;html=1;strokeColor=none;fillColor=none;align=center;verticalAlign=middle;whiteSpace=wrap;rounded=0;fontSize=12;rotation=75;" parent="1" vertex="1">
          <mxGeometry x="386" y="56" width="120" height="26.15" as="geometry" />
        </mxCell>
        <mxCell id="O7KzEF7yCn1SDMwKWR9x-119" value="" style="endArrow=classic;startArrow=classic;html=1;rounded=0;fontColor=#FF6666;exitX=1;exitY=0.5;exitDx=0;exitDy=0;entryX=0;entryY=0.5;entryDx=0;entryDy=0;dashed=1;" parent="1" source="O7KzEF7yCn1SDMwKWR9x-8" target="O7KzEF7yCn1SDMwKWR9x-2" edge="1">
          <mxGeometry width="50" height="50" relative="1" as="geometry">
            <mxPoint x="350" y="330" as="sourcePoint" />
            <mxPoint x="370" y="230" as="targetPoint" />
          </mxGeometry>
        </mxCell>
        <mxCell id="O7KzEF7yCn1SDMwKWR9x-120" value="" style="endArrow=classic;startArrow=classic;html=1;rounded=0;fontColor=#FF6666;exitX=1;exitY=0.5;exitDx=0;exitDy=0;entryX=0;entryY=0.5;entryDx=0;entryDy=0;dashed=1;" parent="1" edge="1">
          <mxGeometry width="50" height="50" relative="1" as="geometry">
            <mxPoint x="479.8425806451612" y="230" as="sourcePoint" />
            <mxPoint x="578.9474193548385" y="230" as="targetPoint" />
          </mxGeometry>
        </mxCell>
        <mxCell id="O7KzEF7yCn1SDMwKWR9x-121" value="" style="endArrow=classic;startArrow=classic;html=1;rounded=0;fontColor=#FF6666;exitX=0;exitY=0.5;exitDx=0;exitDy=0;entryX=0.5;entryY=1;entryDx=0;entryDy=0;" parent="1" source="O7KzEF7yCn1SDMwKWR9x-1" target="O7KzEF7yCn1SDMwKWR9x-8" edge="1">
          <mxGeometry width="50" height="50" relative="1" as="geometry">
            <mxPoint x="310" y="410" as="sourcePoint" />
            <mxPoint x="220" y="370" as="targetPoint" />
            <Array as="points">
              <mxPoint x="200" y="405" />
            </Array>
          </mxGeometry>
        </mxCell>
        <mxCell id="O7KzEF7yCn1SDMwKWR9x-122" value="&lt;span style=&quot;font-size: 11px&quot;&gt;&lt;b&gt;Command&lt;/b&gt;&lt;/span&gt;" style="text;html=1;strokeColor=none;fillColor=none;align=center;verticalAlign=middle;whiteSpace=wrap;rounded=0;fontSize=12;rotation=0;direction=west;" parent="1" vertex="1">
          <mxGeometry x="221" y="381" width="120" height="26.15" as="geometry" />
        </mxCell>
        <mxCell id="O7KzEF7yCn1SDMwKWR9x-123" value="&lt;span style=&quot;font-size: 11px&quot;&gt;&lt;b&gt;Respone&lt;/b&gt;&lt;/span&gt;" style="text;html=1;strokeColor=none;fillColor=none;align=center;verticalAlign=middle;whiteSpace=wrap;rounded=0;fontSize=12;rotation=0;direction=west;" parent="1" vertex="1">
          <mxGeometry x="219" y="399" width="120" height="26.15" as="geometry" />
        </mxCell>
        <mxCell id="O7KzEF7yCn1SDMwKWR9x-124" value="" style="endArrow=classic;startArrow=classic;html=1;rounded=0;fontColor=#FF6666;entryX=0.5;entryY=1;entryDx=0;entryDy=0;" parent="1" source="O7KzEF7yCn1SDMwKWR9x-8" target="O7KzEF7yCn1SDMwKWR9x-25" edge="1">
          <mxGeometry width="50" height="50" relative="1" as="geometry">
            <mxPoint x="400" y="290" as="sourcePoint" />
            <mxPoint x="450" y="240" as="targetPoint" />
          </mxGeometry>
        </mxCell>
        <mxCell id="O7KzEF7yCn1SDMwKWR9x-125" value="&lt;span style=&quot;font-size: 11px&quot;&gt;&lt;b&gt;send Post&amp;nbsp;&lt;/b&gt;&lt;/span&gt;" style="text;html=1;strokeColor=none;fillColor=none;align=center;verticalAlign=middle;whiteSpace=wrap;rounded=0;fontSize=12;rotation=-90;" parent="1" vertex="1">
          <mxGeometry x="130" y="164" width="120" height="26.15" as="geometry" />
        </mxCell>
        <mxCell id="O7KzEF7yCn1SDMwKWR9x-126" value="&lt;span style=&quot;font-size: 11px&quot;&gt;&lt;b&gt;Respone&lt;/b&gt;&lt;/span&gt;" style="text;html=1;strokeColor=none;fillColor=none;align=center;verticalAlign=middle;whiteSpace=wrap;rounded=0;fontSize=12;rotation=-90;" parent="1" vertex="1">
          <mxGeometry x="150" y="161" width="120" height="26.15" as="geometry" />
        </mxCell>
        <mxCell id="O7KzEF7yCn1SDMwKWR9x-127" value="" style="endArrow=classic;startArrow=classic;html=1;rounded=0;fontColor=#FF6666;exitX=0.5;exitY=0;exitDx=0;exitDy=0;entryX=0;entryY=1;entryDx=0;entryDy=0;entryPerimeter=0;" parent="1" source="O7KzEF7yCn1SDMwKWR9x-25" target="O7KzEF7yCn1SDMwKWR9x-9" edge="1">
          <mxGeometry width="50" height="50" relative="1" as="geometry">
            <mxPoint x="400" y="240" as="sourcePoint" />
            <mxPoint x="360" y="40" as="targetPoint" />
          </mxGeometry>
        </mxCell>
        <mxCell id="O7KzEF7yCn1SDMwKWR9x-128" value="&lt;span style=&quot;font-size: 11px&quot;&gt;&lt;b&gt;Query&lt;/b&gt;&lt;/span&gt;" style="text;html=1;strokeColor=none;fillColor=none;align=center;verticalAlign=middle;whiteSpace=wrap;rounded=0;fontSize=12;rotation=334;" parent="1" vertex="1">
          <mxGeometry x="215" y="41" width="120" height="26.15" as="geometry" />
        </mxCell>
        <mxCell id="O7KzEF7yCn1SDMwKWR9x-129" value="&lt;span style=&quot;font-size: 11px&quot;&gt;&lt;b&gt;Return Data&lt;/b&gt;&lt;/span&gt;" style="text;html=1;strokeColor=none;fillColor=none;align=center;verticalAlign=middle;whiteSpace=wrap;rounded=0;fontSize=12;rotation=-30;" parent="1" vertex="1">
          <mxGeometry x="231" y="55" width="120" height="26.15" as="geometry" />
        </mxCell>
        <mxCell id="O7KzEF7yCn1SDMwKWR9x-132" value="" style="endArrow=classic;startArrow=classic;html=1;rounded=0;fontColor=#FF6666;entryX=0.5;entryY=1;entryDx=0;entryDy=0;" parent="1" target="O7KzEF7yCn1SDMwKWR9x-6" edge="1">
          <mxGeometry width="50" height="50" relative="1" as="geometry">
            <mxPoint x="451" y="405" as="sourcePoint" />
            <mxPoint x="640" y="360" as="targetPoint" />
            <Array as="points">
              <mxPoint x="640" y="400" />
            </Array>
          </mxGeometry>
        </mxCell>
        <mxCell id="O7KzEF7yCn1SDMwKWR9x-133" value="&lt;span style=&quot;font-size: 11px&quot;&gt;&lt;b&gt;Command&lt;/b&gt;&lt;/span&gt;" style="text;html=1;strokeColor=none;fillColor=none;align=center;verticalAlign=middle;whiteSpace=wrap;rounded=0;fontSize=12;rotation=0;direction=west;" parent="1" vertex="1">
          <mxGeometry x="492" y="382" width="120" height="26.15" as="geometry" />
        </mxCell>
        <mxCell id="O7KzEF7yCn1SDMwKWR9x-134" value="&lt;span style=&quot;font-size: 11px&quot;&gt;&lt;b&gt;Respone&lt;/b&gt;&lt;/span&gt;" style="text;html=1;strokeColor=none;fillColor=none;align=center;verticalAlign=middle;whiteSpace=wrap;rounded=0;fontSize=12;rotation=0;direction=west;" parent="1" vertex="1">
          <mxGeometry x="496" y="398" width="120" height="26.15" as="geometry" />
        </mxCell>
        <mxCell id="O7KzEF7yCn1SDMwKWR9x-135" value="" style="endArrow=classic;startArrow=classic;html=1;rounded=0;fontColor=#FF6666;entryX=0.5;entryY=1;entryDx=0;entryDy=0;" parent="1" source="O7KzEF7yCn1SDMwKWR9x-6" target="O7KzEF7yCn1SDMwKWR9x-27" edge="1">
          <mxGeometry width="50" height="50" relative="1" as="geometry">
            <mxPoint x="400" y="240" as="sourcePoint" />
            <mxPoint x="450" y="190" as="targetPoint" />
          </mxGeometry>
        </mxCell>
        <mxCell id="O7KzEF7yCn1SDMwKWR9x-136" value="&lt;span style=&quot;font-size: 11px&quot;&gt;&lt;b&gt;send Post&amp;nbsp;&lt;/b&gt;&lt;/span&gt;" style="text;html=1;strokeColor=none;fillColor=none;align=center;verticalAlign=middle;whiteSpace=wrap;rounded=0;fontSize=12;rotation=-90;" parent="1" vertex="1">
          <mxGeometry x="566" y="167" width="120" height="26.15" as="geometry" />
        </mxCell>
        <mxCell id="O7KzEF7yCn1SDMwKWR9x-137" value="&lt;span style=&quot;font-size: 11px&quot;&gt;&lt;b&gt;Respone&lt;/b&gt;&lt;/span&gt;" style="text;html=1;strokeColor=none;fillColor=none;align=center;verticalAlign=middle;whiteSpace=wrap;rounded=0;fontSize=12;rotation=-90;" parent="1" vertex="1">
          <mxGeometry x="586" y="166" width="120" height="26.15" as="geometry" />
        </mxCell>
        <mxCell id="O7KzEF7yCn1SDMwKWR9x-138" value="" style="endArrow=classic;startArrow=classic;html=1;rounded=0;fontColor=#FF6666;exitX=0.5;exitY=0;exitDx=0;exitDy=0;entryX=1;entryY=1;entryDx=0;entryDy=0;entryPerimeter=0;" parent="1" source="O7KzEF7yCn1SDMwKWR9x-27" target="O7KzEF7yCn1SDMwKWR9x-9" edge="1">
          <mxGeometry width="50" height="50" relative="1" as="geometry">
            <mxPoint x="580" y="60" as="sourcePoint" />
            <mxPoint x="630" y="10" as="targetPoint" />
          </mxGeometry>
        </mxCell>
        <mxCell id="O7KzEF7yCn1SDMwKWR9x-139" value="&lt;span style=&quot;font-size: 11px&quot;&gt;&lt;b&gt;Query&lt;/b&gt;&lt;/span&gt;" style="text;html=1;strokeColor=none;fillColor=none;align=center;verticalAlign=middle;whiteSpace=wrap;rounded=0;fontSize=12;rotation=30;" parent="1" vertex="1">
          <mxGeometry x="499" y="39" width="120" height="26.15" as="geometry" />
        </mxCell>
        <mxCell id="O7KzEF7yCn1SDMwKWR9x-140" value="&lt;span style=&quot;font-size: 11px&quot;&gt;&lt;b&gt;Return Data&lt;/b&gt;&lt;/span&gt;" style="text;html=1;strokeColor=none;fillColor=none;align=center;verticalAlign=middle;whiteSpace=wrap;rounded=0;fontSize=12;rotation=32;" parent="1" vertex="1">
          <mxGeometry x="490" y="56" width="120" height="26.15" as="geometry" />
        </mxCell>
      </root>
    </mxGraphModel>
  </diagram>
</mxfile>
